{
  "asset": {
    "generator": "Khronos glTF Blender I/O v1.5.17",
    "version": "2.0"
  },
  "scene": 0,
  "scenes": [
    {
      "name": "Scene",
      "nodes": [
        0,
        1,
        2
      ]
    }
  ],
  "nodes": [
    {
      "mesh": 0,
      "name": "cube11_copy12",
      "rotation": [
        0.7071068286895752,
        0,
        0,
        0.7071067094802856
      ]
    },
    {
      "mesh": 1,
      "name": "cube11",
      "rotation": [
        0.7071068286895752,
        0,
        0,
        0.7071067094802856
      ]
    },
    {
      "mesh": 2,
      "name": "sphere10",
      "rotation": [
        0.7071068286895752,
        0,
        0,
        0.7071067094802856
      ]
    }
  ],
  "materials": [
    {
      "alphaMode": "BLEND",
      "doubleSided": true,
      "emissiveFactor": [
        1,
        1,
        1
      ],
      "emissiveTexture": {
        "index": 0
      },
      "name": "cube11_auv",
      "pbrMetallicRoughness": {
        "baseColorTexture": {
          "index": 1
        },
        "metallicFactor": 0,
        "roughnessFactor": 0.5
      }
    }
  ],
  "meshes": [
    {
      "name": "cube11_copy12",
      "primitives": [
        {
          "attributes": {
            "POSITION": 0,
            "TEXCOORD_0": 1
          },
          "indices": 2,
          "material": 0
        }
      ]
    },
    {
      "name": "cube11",
      "primitives": [
        {
          "attributes": {
            "POSITION": 3,
            "TEXCOORD_0": 4
          },
          "indices": 2,
          "material": 0
        }
      ]
    },
    {
      "name": "sphere10",
      "primitives": [
        {
          "attributes": {
            "POSITION": 5,
            "TEXCOORD_0": 6
          },
          "indices": 7,
          "material": 0
        }
      ]
    }
  ],
  "textures": [
    {
      "sampler": 0,
      "source": 0
    },
    {
      "sampler": 0,
      "source": 1
    }
  ],
  "images": [
    {
      "name": "muzzleflash",
      "uri": "muzzle_flash_img0.png"
    },
    {
      "name": "muzzleflash",
      "uri": "muzzle_flash_img1.png"
    }
  ],
  "accessors": [
    {
      "bufferView": 0,
      "componentType": 5126,
      "count": 4,
      "max": [
        0.906646728515625,
        0.6388024091720581,
        0.005231088493019342
      ],
      "min": [
        -0.906646728515625,
        -2.269822835922241,
        0.005231088493019342
      ],
      "type": "VEC3"
    },
    {
      "bufferView": 1,
      "componentType": 5126,
      "count": 4,
      "type": "VEC2"
    },
    {
      "bufferView": 2,
      "componentType": 5123,
      "count": 6,
      "type": "SCALAR"
    },
    {
      "bufferView": 3,
      "componentType": 5126,
      "count": 4,
      "max": [
        0.0010416606673970819,
        0.6396997570991516,
        0.906646728515625
      ],
      "min": [
        0.0010416606673970819,
        -2.268925666809082,
        -0.906646728515625
      ],
      "type": "VEC3"
    },
    {
      "bufferView": 4,
      "componentType": 5126,
      "count": 4,
      "type": "VEC2"
    },
    {
      "bufferView": 5,
      "componentType": 5126,
      "count": 16,
      "max": [
        0.9238795042037964,
        0.19227460026741028,
        0.9238795042037964
      ],
      "min": [
        -0.9238795042037964,
        -0.18115070462226868,
        -0.9238795042037964
      ],
      "type": "VEC3"
    },
    {
      "bufferView": 6,
      "componentType": 5126,
      "count": 16,
      "type": "VEC2"
    },
    {
      "bufferView": 7,
      "componentType": 5123,
      "count": 54,
      "type": "SCALAR"
    }
  ],
  "bufferViews": [
    {
      "buffer": 0,
      "byteLength": 48,
      "byteOffset": 0
    },
    {
      "buffer": 0,
      "byteLength": 32,
      "byteOffset": 48
    },
    {
      "buffer": 0,
      "byteLength": 12,
      "byteOffset": 80
    },
    {
      "buffer": 0,
      "byteLength": 48,
      "byteOffset": 92
    },
    {
      "buffer": 0,
      "byteLength": 32,
      "byteOffset": 140
    },
    {
      "buffer": 0,
      "byteLength": 192,
      "byteOffset": 172
    },
    {
      "buffer": 0,
      "byteLength": 128,
      "byteOffset": 364
    },
    {
      "buffer": 0,
      "byteLength": 108,
      "byteOffset": 492
    }
  ],
  "samplers": [
    {
      "magFilter": 9729,
      "minFilter": 9987
    }
  ],
  "buffers": [
    {
      "uri": "muzzle_flash_data.bin",
      "byteLength": 600
    }
  ]
}